<?xml version="1.0" encoding="utf-8"?><svg xml:space="preserve" viewBox="0 0 100 100" y="0" x="0" xmlns="http://www.w3.org/2000/svg" id="圖層_1" version="1.1" width="200px" height="200px" xmlns:xlink="http://www.w3.org/1999/xlink" style="width:100%;height:100%;background-size:initial;background-repeat-y:initial;background-repeat-x:initial;background-position-y:initial;background-position-x:initial;background-origin:initial;background-image:initial;background-color:rgb(255, 255, 255);background-clip:initial;background-attachment:initial;animation-play-state:paused" ><g class="ldl-scale" style="transform-origin:50% 50%;transform:rotate(0deg) scale(0.8, 0.8);animation-play-state:paused" ><path fill="#f5e6c8" d="M50 25.889L18.953 50.573v23.904a4.108 4.108 0 0 0 4.108 4.108h53.878a4.108 4.108 0 0 0 4.108-4.108V50.573L50 25.889z" style="fill:rgb(245, 230, 200);animation-play-state:paused" ></path>
<path fill="#333" d="M77.84 48.023l-12.321-9.796V23.845a2.429 2.429 0 0 1 2.429-2.429h7.463a2.429 2.429 0 0 1 2.429 2.429v24.178z" style="fill:rgb(51, 51, 51);animation-play-state:paused" ></path>
<path fill="#f8b26a" d="M52.587 78.584H34.776V56.213c0-.992.804-1.796 1.796-1.796h13.413a2.601 2.601 0 0 1 2.601 2.601v21.566z" style="fill:rgb(248, 178, 106);animation-play-state:paused" ></path>
<circle fill="#f47e60" r="2.192" cy="66.669" cx="47.963" style="fill:rgb(244, 126, 96);animation-play-state:paused" ></circle>
<path d="M90 57.691L50 25.889 10 57.691" stroke-miterlimit="10" stroke-width="8.767" stroke="#e15b64" fill="none" style="stroke:rgb(225, 91, 100);animation-play-state:paused" ></path>
<metadata xmlns:d="https://loading.io/stock/" style="animation-play-state:paused" ><d:name style="animation-play-state:paused" >house</d:name>
<d:tags style="animation-play-state:paused" >house,home,chalet,cabin,building,construction,chimney</d:tags>
<d:license style="animation-play-state:paused" >by</d:license>
<d:slug style="animation-play-state:paused" >ynb8wo</d:slug></metadata></g><!-- generated by https://loading.io/ --></svg>