<?xml version="1.0" encoding="utf-8"?><svg xml:space="preserve" viewBox="0 0 100 100" y="0" x="0" xmlns="http://www.w3.org/2000/svg" id="Layer_1" version="1.1" width="200px" height="200px" xmlns:xlink="http://www.w3.org/1999/xlink" style="width:100%;height:100%;background-size:initial;background-repeat-y:initial;background-repeat-x:initial;background-position-y:initial;background-position-x:initial;background-origin:initial;background-image:initial;background-color:rgb(255, 255, 255);background-clip:initial;background-attachment:initial;animation-play-state:paused" ><g class="ldl-scale" style="transform-origin:50% 50%;transform:rotate(0deg) scale(0.8, 0.8);animation-play-state:paused" ><path stroke-miterlimit="10" stroke-width="3.5" stroke="#323232" fill="#fff" d="M86.143 77.92L75.835 64.76a7.539 7.539 0 0 0-5.974-2.897H30.139a7.537 7.537 0 0 0-5.975 2.899L13.858 77.919a7.383 7.383 0 0 0-.817 7.886C14.321 88.393 16.923 90 19.832 90h60.336c2.909 0 5.511-1.607 6.79-4.195a7.378 7.378 0 0 0-.815-7.885z" style="stroke:rgb(50, 50, 50);fill:rgb(255, 255, 255);animation-play-state:paused" ></path>
<path fill="#acbd81" d="M80.168 85.207H19.832c-2.303 0-3.599-2.647-2.188-4.466L27.95 67.456a2.77 2.77 0 0 1 2.188-1.072h39.723a2.77 2.77 0 0 1 2.188 1.072L82.356 80.74c1.411 1.82.114 4.467-2.188 4.467z" style="fill:rgb(172, 189, 129);animation-play-state:paused" ></path>
<path stroke-miterlimit="10" stroke-width="3.5" stroke="#323232" fill="#d65a62" d="M48.907 10.029c-10.567.56-19.028 9.548-18.988 20.13a19.956 19.956 0 0 0 5.148 13.332c6.627 7.355 10.866 16.543 11.402 26.429l.152 2.81c.066 1.212 1.559 2.172 3.38 2.172 1.82 0 3.314-.96 3.38-2.172l.145-2.672c.539-9.943 4.793-19.188 11.441-26.601a19.96 19.96 0 0 0 5.116-13.375c-.001-11.453-9.589-20.667-21.176-20.053zM50 40.041c-5.36 0-9.705-4.345-9.705-9.705S44.64 20.63 50 20.63s9.705 4.345 9.705 9.705S55.36 40.041 50 40.041z" style="stroke:rgb(50, 50, 50);fill:rgb(214, 90, 98);animation-play-state:paused" ></path>
<metadata xmlns:d="https://loading.io/stock/" style="animation-play-state:paused" ><d:name style="animation-play-state:paused" >map</d:name>


<d:tags style="animation-play-state:paused" >map,atlas,direction,waypoint,poi,landmark,scene,hotspot,marker,gps,navigation</d:tags>


<d:license style="animation-play-state:paused" >by</d:license>


<d:slug style="animation-play-state:paused" >v0bwgt</d:slug></metadata></g><!-- generated by https://loading.io/ --></svg>