<?xml version="1.0" encoding="utf-8"?><svg xml:space="preserve" viewBox="0 0 100 100" y="0px" x="0px" xmlns:xlink="http://www.w3.org/1999/xlink" xmlns="http://www.w3.org/2000/svg" id="圖層_1" version="1.1" width="200px" height="200px" style="width:100%;height:100%;background-size:initial;background-repeat-y:initial;background-repeat-x:initial;background-position-y:initial;background-position-x:initial;background-origin:initial;background-image:initial;background-color:rgb(255, 255, 255);background-clip:initial;background-attachment:initial;animation-play-state:paused" ><g class="ldl-scale" style="transform-origin:50% 50%;transform:rotate(0deg) scale(0.8, 0.8);animation-play-state:paused" ><g style="animation-play-state:paused" ><rect height="3.1" width="80" fill="#E0E0E0" y="79.8" x="10" style="fill:rgb(224, 224, 224);animation-play-state:paused" ></rect>
<path d="M76.9,37.6H23.1c-2.6,0-4.7,2.1-4.7,4.7v37.4h39V52.6h17.3v27.1h6.9V42.3C81.6,39.7,79.5,37.6,76.9,37.6z" fill="#E0E0E0" style="fill:rgb(224, 224, 224);animation-play-state:paused" ></path></g>
<g style="animation-play-state:paused" ><rect height="27.1" width="26.3" fill="#A0C8D7" y="52.6" x="24.5" style="fill:rgb(160, 200, 215);animation-play-state:paused" ></rect>
<polygon points="24.5,62.7 34.6,52.6 31.7,52.6 24.5,59.8" fill="#FFFFFF" style="fill:rgb(255, 255, 255);animation-play-state:paused" ></polygon>
<polygon points="24.5,65.6 37.5,52.6 36,52.6 24.5,64.1" fill="#FFFFFF" style="fill:rgb(255, 255, 255);animation-play-state:paused" ></polygon></g>
<g style="animation-play-state:paused" ><rect height="27.1" width="17.3" fill="#333333" y="52.6" x="57.4" style="fill:rgb(51, 51, 51);animation-play-state:paused" ></rect>
<polygon points="53.8,67.7 53.8,69.7 54.5,69.7 54.5,79.8 66.9,79.8 66.9,69.7 68.3,69.7 68.3,67.7" fill="#F8B26A" style="fill:rgb(248, 178, 106);animation-play-state:paused" ></polygon>
<rect height="2.7" width="6.4" fill="#666666" y="65" x="58.5" style="fill:rgb(102, 102, 102);animation-play-state:paused" ></rect></g>
<g style="animation-play-state:paused" ><path d="M77.5,22.9H22.5c-0.7,0-1.3-0.6-1.3-1.3v-3.1c0-0.7,0.6-1.3,1.3-1.3h55.1c0.7,0,1.3,0.6,1.3,1.3v3.1 C78.8,22.3,78.3,22.9,77.5,22.9z" fill="#E15B64" style="fill:rgb(225, 91, 100);animation-play-state:paused" ></path>
<path d="M14,49.8L14,49.8c-2,0-3.7-1.6-3.7-3.7l11.4-23.2H27l-9.3,23.2C17.7,48.1,16.1,49.8,14,49.8z" fill="#E15B64" style="fill:rgb(225, 91, 100);animation-play-state:paused" ></path>
<path d="M21.2,49.8L21.2,49.8c-2,0-3.7-1.6-3.7-3.7l9.3-23.2h5.2l-7.2,23.2C24.9,48.1,23.3,49.8,21.2,49.8z" fill="#FFFFFF" style="fill:rgb(255, 255, 255);animation-play-state:paused" ></path>
<path d="M28.4,49.8L28.4,49.8c-2,0-3.7-1.6-3.7-3.7L32,22.9h5.2l-5.2,23.2C32.1,48.1,30.4,49.8,28.4,49.8z" fill="#E15B64" style="fill:rgb(225, 91, 100);animation-play-state:paused" ></path>
<path d="M35.6,49.8L35.6,49.8c-2,0-3.7-1.6-3.7-3.7l5.2-23.2h5.2l-3.1,23.2C39.3,48.1,37.6,49.8,35.6,49.8z" fill="#FFFFFF" style="fill:rgb(255, 255, 255);animation-play-state:paused" ></path>
<path d="M42.8,49.8L42.8,49.8c-2,0-3.7-1.6-3.7-3.7l3.1-23.2h5.2l-1,23.2C46.5,48.1,44.8,49.8,42.8,49.8z" fill="#E15B64" style="fill:rgb(225, 91, 100);animation-play-state:paused" ></path>
<path d="M50,49.8L50,49.8c-2,0-3.7-1.6-3.7-3.7l1.1-23.2h5.2l1.1,23.2C53.7,48.1,52,49.8,50,49.8z" fill="#FFFFFF" style="fill:rgb(255, 255, 255);animation-play-state:paused" ></path>
<path d="M57.2,49.8L57.2,49.8c-2,0-3.7-1.6-3.7-3.7l-1-23.2h5.2l3.1,23.2C60.8,48.1,59.2,49.8,57.2,49.8z" fill="#E15B64" style="fill:rgb(225, 91, 100);animation-play-state:paused" ></path>
<path d="M64.4,49.8L64.4,49.8c-2,0-3.7-1.6-3.7-3.7l-3.1-23.2h5.2L68,46.1C68,48.1,66.4,49.8,64.4,49.8z" fill="#FFFFFF" style="fill:rgb(255, 255, 255);animation-play-state:paused" ></path>
<path d="M71.6,49.8L71.6,49.8c-2,0-3.7-1.6-3.7-3.7l-5.2-23.2H68l7.3,23.2C75.2,48.1,73.6,49.8,71.6,49.8z" fill="#E15B64" style="fill:rgb(225, 91, 100);animation-play-state:paused" ></path>
<path d="M78.8,49.8L78.8,49.8c-2,0-3.7-1.6-3.7-3.7l-7.2-23.2h5.2l9.3,23.2C82.4,48.1,80.8,49.8,78.8,49.8z" fill="#FFFFFF" style="fill:rgb(255, 255, 255);animation-play-state:paused" ></path>
<path d="M86,49.8L86,49.8c-2,0-3.7-1.6-3.7-3.7L73,22.9h5.2l11.4,23.2C89.6,48.1,88,49.8,86,49.8z" fill="#E15B64" style="fill:rgb(225, 91, 100);animation-play-state:paused" ></path>
<path d="M14,49.8L14,49.8c-2,0-3.7-1.6-3.7-3.7l11.4-23.2H27l-9.3,23.2C17.7,48.1,16.1,49.8,14,49.8z" fill="#E15B64" style="fill:rgb(225, 91, 100);animation-play-state:paused" ></path>
<path d="M21.2,49.8L21.2,49.8c-2,0-3.7-1.6-3.7-3.7l9.3-23.2h5.2l-7.2,23.2C24.9,48.1,23.3,49.8,21.2,49.8z" fill="#FFFFFF" style="fill:rgb(255, 255, 255);animation-play-state:paused" ></path>
<path d="M28.4,49.8L28.4,49.8c-2,0-3.7-1.6-3.7-3.7L32,22.9h5.2l-5.2,23.2C32.1,48.1,30.4,49.8,28.4,49.8z" fill="#E15B64" style="fill:rgb(225, 91, 100);animation-play-state:paused" ></path>
<path d="M35.6,49.8L35.6,49.8c-2,0-3.7-1.6-3.7-3.7l5.2-23.2h5.2l-3.1,23.2C39.3,48.1,37.6,49.8,35.6,49.8z" fill="#FFFFFF" style="fill:rgb(255, 255, 255);animation-play-state:paused" ></path>
<path d="M42.8,49.8L42.8,49.8c-2,0-3.7-1.6-3.7-3.7l3.1-23.2h5.2l-1,23.2C46.5,48.1,44.8,49.8,42.8,49.8z" fill="#E15B64" style="fill:rgb(225, 91, 100);animation-play-state:paused" ></path>
<path d="M50,49.8L50,49.8c-2,0-3.7-1.6-3.7-3.7l1.1-23.2h5.2l1.1,23.2C53.7,48.1,52,49.8,50,49.8z" fill="#FFFFFF" style="fill:rgb(255, 255, 255);animation-play-state:paused" ></path>
<path d="M57.2,49.8L57.2,49.8c-2,0-3.7-1.6-3.7-3.7l-1-23.2h5.2l3.1,23.2C60.8,48.1,59.2,49.8,57.2,49.8z" fill="#E15B64" style="fill:rgb(225, 91, 100);animation-play-state:paused" ></path>
<path d="M64.4,49.8L64.4,49.8c-2,0-3.7-1.6-3.7-3.7l-3.1-23.2h5.2L68,46.1C68,48.1,66.4,49.8,64.4,49.8z" fill="#FFFFFF" style="fill:rgb(255, 255, 255);animation-play-state:paused" ></path>
<path d="M71.6,49.8L71.6,49.8c-2,0-3.7-1.6-3.7-3.7l-5.2-23.2H68l7.3,23.2C75.2,48.1,73.6,49.8,71.6,49.8z" fill="#E15B64" style="fill:rgb(225, 91, 100);animation-play-state:paused" ></path>
<path d="M78.8,49.8L78.8,49.8c-2,0-3.7-1.6-3.7-3.7l-7.2-23.2h5.2l9.3,23.2C82.4,48.1,80.8,49.8,78.8,49.8z" fill="#FFFFFF" style="fill:rgb(255, 255, 255);animation-play-state:paused" ></path>
<path d="M86,49.8L86,49.8c-2,0-3.7-1.6-3.7-3.7L73,22.9h5.2l11.4,23.2C89.6,48.1,88,49.8,86,49.8z" fill="#E15B64" style="fill:rgb(225, 91, 100);animation-play-state:paused" ></path></g>
<metadata xmlns:d="https://loading.io/stock/" style="animation-play-state:paused" ><d:name style="animation-play-state:paused" >shop</d:name>


<d:tags style="animation-play-state:paused" >building,shop,store,sell,market,merchant,grocery,supermarket</d:tags>


<d:license style="animation-play-state:paused" >by</d:license>


<d:slug style="animation-play-state:paused" >1v1c3o</d:slug></metadata></g><!-- generated by https://loading.io/ --></svg>